<?xml version="1.0" standalone="no"?>
<!DOCTYPE svg PUBLIC "-//W3C//DTD SVG 1.1//EN" "http://www.w3.org/Graphics/SVG/1.1/DTD/svg11.dtd">
<svg width="164" height="164" version="1.1" xmlns="http://www.w3.org/2000/svg">
  <title>10 by 10 orthogonal maze</title>
  <desc>10 by 10 orthogonal maze generated by The Maze Generator Website (http://www.mazegenerator.net/).</desc>
  <g fill="none" stroke="#000000" stroke-width="2" stroke-linecap="square" stroke-linejoin="round">
    <polyline points="74,2 74,26 58,26 58,42 74,42 74,58 90,58 90,26 122,26 122,42 106,42 106,90 122,90 122,58 138,58 138,10 154,10 154,74 138,74 138,90 154,90 154,106 90,106 90,98" />
    <polyline points="154,106 154,138 122,138 122,154 106,154" />
    <polyline points="122,138 122,122 138,122" />
    <polyline points="138,138 138,154 154,154" />
    <polyline points="106,26 106,10 122,10" />
    <polyline points="90,26 90,10" />
    <polyline points="58,26 42,26 42,58 58,58 58,106 74,106" />
    <polyline points="58,106 42,106 42,122 74,122 74,154 90,154 90,138 106,138 106,122 90,122" />
    <polyline points="58,90 42,90 42,74" />
    <polyline points="42,42 26,42 26,122 10,122 10,154 58,154 58,138 26,138" />
    <polyline points="74,10 26,10 26,26 10,26 10,106" />
    <polyline points="10,26 10,10" />
  </g>
</svg>
